<svg width="35" height="35" viewBox="0 0 35 35" fill="none" xmlns="http://www.w3.org/2000/svg">
<path d="M18.9584 17.7553L22.2397 21.0365C22.507 21.3039 22.6407 21.6383 22.6407 22.0399C22.6407 22.4404 22.507 22.7865 22.2397 23.0782C21.948 23.3699 21.6019 23.5157 21.2013 23.5157C20.7998 23.5157 20.4532 23.3699 20.1615 23.0782L17.0626 19.9792C16.7223 19.639 16.4671 19.2622 16.297 18.849C16.1268 18.4358 16.0417 17.9862 16.0417 17.5001V13.1251C16.0417 12.7119 16.1817 12.3653 16.4617 12.0853C16.7408 11.8063 17.0869 11.6667 17.5001 11.6667C17.9133 11.6667 18.2599 11.8063 18.5399 12.0853C18.8189 12.3653 18.9584 12.7119 18.9584 13.1251V17.7553ZM17.5001 5.83341C17.9133 5.83341 18.2599 5.97293 18.5399 6.25196C18.8189 6.53196 18.9584 6.87855 18.9584 7.29175C18.9584 7.70494 18.8189 8.05154 18.5399 8.33154C18.2599 8.61057 17.9133 8.75008 17.5001 8.75008C17.0869 8.75008 16.7408 8.61057 16.4617 8.33154C16.1817 8.05154 16.0417 7.70494 16.0417 7.29175C16.0417 6.87855 16.1817 6.53196 16.4617 6.25196C16.7408 5.97293 17.0869 5.83341 17.5001 5.83341ZM29.1667 17.5001C29.1667 17.9133 29.0267 18.2594 28.7467 18.5384C28.4677 18.8184 28.1216 18.9584 27.7084 18.9584C27.2952 18.9584 26.9491 18.8184 26.6701 18.5384C26.3901 18.2594 26.2501 17.9133 26.2501 17.5001C26.2501 17.0869 26.3901 16.7403 26.6701 16.4603C26.9491 16.1813 27.2952 16.0417 27.7084 16.0417C28.1216 16.0417 28.4677 16.1813 28.7467 16.4603C29.0267 16.7403 29.1667 17.0869 29.1667 17.5001ZM17.5001 26.2501C17.9133 26.2501 18.2599 26.3901 18.5399 26.6701C18.8189 26.9491 18.9584 27.2952 18.9584 27.7084C18.9584 28.1216 18.8189 28.4677 18.5399 28.7467C18.2599 29.0267 17.9133 29.1667 17.5001 29.1667C17.0869 29.1667 16.7408 29.0267 16.4617 28.7467C16.1817 28.4677 16.0417 28.1216 16.0417 27.7084C16.0417 27.2952 16.1817 26.9491 16.4617 26.6701C16.7408 26.3901 17.0869 26.2501 17.5001 26.2501ZM8.75008 17.5001C8.75008 17.9133 8.61057 18.2594 8.33154 18.5384C8.05154 18.8184 7.70494 18.9584 7.29175 18.9584C6.87855 18.9584 6.53196 18.8184 6.25196 18.5384C5.97293 18.2594 5.83341 17.9133 5.83341 17.5001C5.83341 17.0869 5.97293 16.7403 6.25196 16.4603C6.53196 16.1813 6.87855 16.0417 7.29175 16.0417C7.70494 16.0417 8.05154 16.1813 8.33154 16.4603C8.61057 16.7403 8.75008 17.0869 8.75008 17.5001ZM17.5001 32.0834C15.4827 32.0834 13.5869 31.7004 11.8126 30.9342C10.0383 30.1691 8.49487 29.1303 7.18237 27.8178C5.86987 26.5053 4.83105 24.9619 4.06591 23.1876C3.2998 21.4133 2.91675 19.5174 2.91675 17.5001C2.91675 15.4827 3.2998 13.5869 4.06591 11.8126C4.83105 10.0383 5.86987 8.49487 7.18237 7.18237C8.49487 5.86987 10.0383 4.83057 11.8126 4.06446C13.5869 3.29932 15.4827 2.91675 17.5001 2.91675C19.5174 2.91675 21.4133 3.29932 23.1876 4.06446C24.9619 4.83057 26.5053 5.86987 27.8178 7.18237C29.1303 8.49487 30.1691 10.0383 30.9342 11.8126C31.7004 13.5869 32.0834 15.4827 32.0834 17.5001C32.0834 19.5174 31.7004 21.4133 30.9342 23.1876C30.1691 24.9619 29.1303 26.5053 27.8178 27.8178C26.5053 29.1303 24.9619 30.1691 23.1876 30.9342C21.4133 31.7004 19.5174 32.0834 17.5001 32.0834ZM17.5001 29.1667C20.757 29.1667 23.5157 28.0365 25.7761 25.7761C28.0365 23.5157 29.1667 20.757 29.1667 17.5001C29.1667 14.2431 28.0365 11.4845 25.7761 9.22404C23.5157 6.96362 20.757 5.83341 17.5001 5.83341C14.2431 5.83341 11.4845 6.96362 9.22404 9.22404C6.96362 11.4845 5.83341 14.2431 5.83341 17.5001C5.83341 20.757 6.96362 23.5157 9.22404 25.7761C11.4845 28.0365 14.2431 29.1667 17.5001 29.1667Z" fill="white"/>
</svg>
