<svg width="35" height="35" viewBox="0 0 35 35" fill="none" xmlns="http://www.w3.org/2000/svg">
<path d="M21.875 7.875C21.875 9.03532 21.4141 10.1481 20.5936 10.9686C19.7731 11.7891 18.6603 12.25 17.5 12.25C16.3397 12.25 15.2269 11.7891 14.4064 10.9686C13.5859 10.1481 13.125 9.03532 13.125 7.875C13.125 6.71468 13.5859 5.60188 14.4064 4.78141C15.2269 3.96094 16.3397 3.5 17.5 3.5C18.6603 3.5 19.7731 3.96094 20.5936 4.78141C21.4141 5.60188 21.875 6.71468 21.875 7.875ZM30.625 8.75C30.625 9.67826 30.2563 10.5685 29.5999 11.2249C28.9435 11.8813 28.0533 12.25 27.125 12.25C26.1967 12.25 25.3065 11.8813 24.6501 11.2249C23.9937 10.5685 23.625 9.67826 23.625 8.75C23.625 7.82174 23.9937 6.9315 24.6501 6.27513C25.3065 5.61875 26.1967 5.25 27.125 5.25C28.0533 5.25 28.9435 5.61875 29.5999 6.27513C30.2563 6.9315 30.625 7.82174 30.625 8.75ZM7.875 12.25C8.80326 12.25 9.6935 11.8813 10.3499 11.2249C11.0063 10.5685 11.375 9.67826 11.375 8.75C11.375 7.82174 11.0063 6.9315 10.3499 6.27513C9.6935 5.61875 8.80326 5.25 7.875 5.25C6.94674 5.25 6.0565 5.61875 5.40013 6.27513C4.74375 6.9315 4.375 7.82174 4.375 8.75C4.375 9.67826 4.74375 10.5685 5.40013 11.2249C6.0565 11.8813 6.94674 12.25 7.875 12.25ZM10.5 16.1875C10.5 14.98 11.48 14 12.6875 14H22.3125C23.52 14 24.5 14.98 24.5 16.1875V24.5C24.5 26.3565 23.7625 28.137 22.4497 29.4497C21.137 30.7625 19.3565 31.5 17.5 31.5C15.6435 31.5 13.863 30.7625 12.5503 29.4497C11.2375 28.137 10.5 26.3565 10.5 24.5V16.1875ZM8.75 16.1875C8.75 15.3772 8.995 14.6265 9.41325 14H5.6875C4.48 14 3.5 14.98 3.5 16.1875V22.75C3.49992 23.4992 3.66019 24.2398 3.97005 24.9219C4.27991 25.604 4.73218 26.2119 5.29647 26.7048C5.86076 27.1976 6.524 27.564 7.24162 27.7792C7.95924 27.9945 8.71462 28.0536 9.457 27.9527C8.98879 26.8619 8.74821 25.687 8.75 24.5V16.1875ZM26.25 24.5C26.25 25.725 25.998 26.894 25.543 27.9527C26.2854 28.0536 27.0408 27.9945 27.7584 27.7792C28.476 27.564 29.1392 27.1976 29.7035 26.7048C30.2678 26.2119 30.7201 25.604 31.0299 24.9219C31.3398 24.2398 31.5001 23.4992 31.5 22.75V16.1875C31.5 14.98 30.52 14 29.3125 14H25.5868C26.0068 14.6265 26.25 15.3772 26.25 16.1875V24.5Z" fill="white"/>
</svg>
