<svg width="35" height="35" viewBox="0 0 35 35" fill="none" xmlns="http://www.w3.org/2000/svg">
<path d="M17.5001 11.6666H5.83341C5.05987 11.6666 4.318 11.9739 3.77102 12.5209C3.22404 13.0678 2.91675 13.8097 2.91675 14.5833V20.4166C2.91675 21.1901 3.22404 21.932 3.77102 22.479C4.318 23.026 5.05987 23.3333 5.83341 23.3333H7.29175V29.1666C7.29175 29.5534 7.44539 29.9243 7.71888 30.1978C7.99237 30.4713 8.36331 30.6249 8.75008 30.6249H11.6667C12.0535 30.6249 12.4245 30.4713 12.6979 30.1978C12.9714 29.9243 13.1251 29.5534 13.1251 29.1666V23.3333H17.5001L24.7917 29.1666V5.83325L17.5001 11.6666ZM21.8751 22.7499L18.9584 20.4166H5.83341V14.5833H18.9584L21.8751 12.2499V22.7499ZM31.3542 17.4999C31.3542 19.9937 29.9542 22.2541 27.7084 23.3333V11.6666C29.9397 12.7603 31.3542 15.0208 31.3542 17.4999Z" fill="white"/>
</svg>
