<svg width="35" height="35" viewBox="0 0 35 35" fill="none" xmlns="http://www.w3.org/2000/svg">
<path d="M17.5001 32.0834C9.44571 32.0834 2.91675 25.5545 2.91675 17.5001C2.91675 9.44571 9.44571 2.91675 17.5001 2.91675C25.5545 2.91675 32.0834 9.44571 32.0834 17.5001C32.0834 25.5545 25.5545 32.0834 17.5001 32.0834ZM17.5001 29.1667C20.5943 29.1667 23.5617 27.9376 25.7497 25.7497C27.9376 23.5617 29.1667 20.5943 29.1667 17.5001C29.1667 14.4059 27.9376 11.4384 25.7497 9.2505C23.5617 7.06258 20.5943 5.83341 17.5001 5.83341C14.4059 5.83341 11.4384 7.06258 9.2505 9.2505C7.06258 11.4384 5.83341 14.4059 5.83341 17.5001C5.83341 20.5943 7.06258 23.5617 9.2505 25.7497C11.4384 27.9376 14.4059 29.1667 17.5001 29.1667ZM12.3959 20.4167H20.4167C20.6101 20.4167 20.7956 20.3399 20.9323 20.2032C21.0691 20.0664 21.1459 19.881 21.1459 19.6876C21.1459 19.4942 21.0691 19.3087 20.9323 19.172C20.7956 19.0352 20.6101 18.9584 20.4167 18.9584H14.5834C13.6165 18.9584 12.6891 18.5743 12.0054 17.8906C11.3217 17.2068 10.9376 16.2795 10.9376 15.3126C10.9376 14.3456 11.3217 13.4183 12.0054 12.7346C12.6891 12.0509 13.6165 11.6667 14.5834 11.6667H16.0417V8.75008H18.9584V11.6667H22.6042V14.5834H14.5834C14.39 14.5834 14.2046 14.6602 14.0678 14.797C13.9311 14.9337 13.8542 15.1192 13.8542 15.3126C13.8542 15.506 13.9311 15.6914 14.0678 15.8282C14.2046 15.9649 14.39 16.0417 14.5834 16.0417H20.4167C21.3837 16.0417 22.311 16.4259 22.9947 17.1096C23.6785 17.7933 24.0626 18.7206 24.0626 19.6876C24.0626 20.6545 23.6785 21.5818 22.9947 22.2656C22.311 22.9493 21.3837 23.3334 20.4167 23.3334H18.9584V26.2501H16.0417V23.3334H12.3959V20.4167Z" fill="white"/>
</svg>
