<svg width="267" height="125" viewBox="0 0 267 125" fill="none" xmlns="http://www.w3.org/2000/svg">
<g clip-path="url(#clip0_10_957)" filter="url(#filter0_d_10_957)">
<g filter="url(#filter1_d_10_957)">
<path d="M109.689 50.0212H99.3756C98.6698 50.0212 98.0696 50.5261 97.9595 51.2121L93.7882 77.2519C93.7052 77.7656 94.1094 78.2289 94.6387 78.2289H99.5625C100.268 78.2289 100.869 77.7241 100.979 77.0366L102.104 70.0132C102.212 69.3258 102.814 68.8209 103.518 68.8209H106.783C113.577 68.8209 117.498 65.5839 118.522 59.1694C118.983 56.363 118.542 54.158 117.207 52.6138C115.741 50.9181 113.141 50.0212 109.689 50.0212ZM110.879 59.5317C110.315 63.1755 107.487 63.1755 104.753 63.1755H103.197L104.289 56.3705C104.354 55.9591 104.716 55.6562 105.138 55.6562H105.851C107.714 55.6562 109.471 55.6562 110.378 56.7016C110.92 57.3252 111.086 58.2518 110.879 59.5317Z" fill="#253B80"/>
</g>
<g filter="url(#filter2_d_10_957)">
<path d="M140.519 59.4144H135.58C135.159 59.4144 134.795 59.7173 134.731 60.1286L134.512 61.4887L134.167 60.9957C133.097 59.4678 130.713 58.957 128.333 58.957C122.876 58.957 118.214 63.027 117.306 68.7362C116.834 71.5842 117.506 74.3074 119.146 76.2065C120.651 77.9527 122.805 78.6803 125.367 78.6803C129.765 78.6803 132.203 75.8962 132.203 75.8962L131.983 77.2474C131.9 77.7641 132.304 78.2274 132.83 78.2274H137.279C137.987 78.2274 138.584 77.7225 138.695 77.0351L141.365 60.3914C141.449 59.8791 141.046 59.4144 140.519 59.4144ZM133.634 68.8788C133.158 71.6569 130.918 73.5219 128.062 73.5219C126.628 73.5219 125.482 73.069 124.746 72.2108C124.016 71.3585 123.738 70.1454 123.971 68.7942C124.415 66.0398 126.693 64.1139 129.505 64.1139C130.908 64.1139 132.048 64.5727 132.799 65.4384C133.551 66.313 133.85 67.5335 133.634 68.8788Z" fill="#253B80"/>
</g>
<g filter="url(#filter3_d_10_957)">
<path d="M166.822 59.4143H161.859C161.386 59.4143 160.941 59.6459 160.672 60.0335L153.827 69.9612L150.926 60.421C150.743 59.8241 150.184 59.4143 149.55 59.4143H144.673C144.081 59.4143 143.669 59.9845 143.857 60.5339L149.324 76.3297L144.185 83.4733C143.781 84.0361 144.188 84.8097 144.886 84.8097H149.843C150.313 84.8097 150.754 84.584 151.021 84.2039L167.528 60.7432C167.923 60.182 167.517 59.4143 166.822 59.4143Z" fill="#253B80"/>
</g>
<g filter="url(#filter4_d_10_957)">
<path d="M183.254 50.0212H172.939C172.235 50.0212 171.635 50.5261 171.524 51.2121L167.353 77.2519C167.27 77.7656 167.674 78.2289 168.201 78.2289H173.494C173.986 78.2289 174.406 77.8755 174.483 77.3944L175.667 70.0132C175.776 69.3258 176.377 68.8209 177.082 68.8209H180.345C187.14 68.8209 191.06 65.5839 192.085 59.1694C192.548 56.363 192.103 54.158 190.769 52.6138C189.305 50.9181 186.706 50.0212 183.254 50.0212ZM184.444 59.5317C183.882 63.1755 181.054 63.1755 178.318 63.1755H176.763L177.857 56.3705C177.922 55.9591 178.281 55.6562 178.704 55.6562H179.418C181.279 55.6562 183.037 55.6562 183.945 56.7016C184.486 57.3252 184.651 58.2518 184.444 59.5317Z" fill="#179BD7"/>
</g>
<g filter="url(#filter5_d_10_957)">
<path d="M214.082 59.4144H209.146C208.722 59.4144 208.362 59.7173 208.299 60.1286L208.08 61.4887L207.733 60.9957C206.664 59.4678 204.281 58.957 201.901 58.957C196.444 58.957 191.784 63.027 190.876 68.7362C190.405 71.5842 191.073 74.3074 192.714 76.2065C194.222 77.9527 196.373 78.6803 198.935 78.6803C203.332 78.6803 205.771 75.8962 205.771 75.8962L205.551 77.2474C205.468 77.7641 205.872 78.2274 206.401 78.2274H210.849C211.553 78.2274 212.153 77.7225 212.263 77.0351L214.934 60.3914C215.015 59.8791 214.611 59.4144 214.082 59.4144ZM207.198 68.8788C206.724 71.6569 204.482 73.5219 201.625 73.5219C200.194 73.5219 199.045 73.069 198.309 72.2108C197.579 71.3585 197.305 70.1454 197.534 68.7942C197.982 66.0398 200.256 64.1139 203.069 64.1139C204.471 64.1139 205.611 64.5727 206.362 65.4384C207.118 66.313 207.416 67.5335 207.198 68.8788Z" fill="#179BD7"/>
</g>
<g filter="url(#filter6_d_10_957)">
<path d="M219.905 50.7355L215.671 77.2519C215.589 77.7657 215.993 78.2289 216.519 78.2289H220.775C221.482 78.2289 222.082 77.7241 222.191 77.0366L226.365 50.9983C226.448 50.4845 226.044 50.0198 225.518 50.0198H220.752C220.331 50.0213 219.969 50.3242 219.905 50.7355Z" fill="#179BD7"/>
</g>
<g filter="url(#filter7_d_10_957)">
<path d="M50.9576 83.2893L51.7464 78.3566L49.9895 78.3165H41.6001L47.4303 41.9184C47.4484 41.8086 47.5072 41.7061 47.5931 41.6334C47.6791 41.5606 47.7892 41.5205 47.9038 41.5205H62.0495C66.7456 41.5205 69.9864 42.4827 71.6784 44.3818C72.4717 45.2727 72.9769 46.2037 73.2212 47.2283C73.4776 48.3033 73.4821 49.5877 73.2317 51.1542L73.2136 51.2685V52.2723L74.0069 52.7148C74.675 53.0637 75.2058 53.4631 75.613 53.9205C76.2916 54.6822 76.7305 55.6503 76.9159 56.7981C77.1075 57.9786 77.0441 59.3832 76.7305 60.9735C76.3685 62.8028 75.7834 64.3961 74.9932 65.6998C74.2663 66.901 73.3403 67.8974 72.2409 68.6695C71.1913 69.403 69.9442 69.9598 68.5341 70.3162C67.1678 70.6666 65.61 70.8433 63.9014 70.8433H62.8005C62.0133 70.8433 61.2487 71.1224 60.6485 71.6228C60.0467 72.1336 59.6486 72.8315 59.5265 73.5947L59.4435 74.0387L58.0501 82.7325L57.9867 83.0517C57.9701 83.1527 57.9415 83.2032 57.8993 83.2373C57.8616 83.2685 57.8073 83.2893 57.7545 83.2893H50.9576Z" fill="#253B80"/>
</g>
<g filter="url(#filter8_d_10_957)">
<path d="M74.758 51.3843C74.7158 51.6501 74.6675 51.9218 74.6132 52.2009C72.7477 61.6312 66.3656 64.889 58.2145 64.889H54.0643C53.0675 64.889 52.2275 65.6017 52.0722 66.5698L49.9473 79.8384L49.3456 83.5996C49.2445 84.2351 49.7422 84.8082 50.3937 84.8082H57.7546C58.6262 84.8082 59.3667 84.1846 59.5039 83.3382L59.5763 82.97L60.9622 74.3103L61.0512 73.8352C61.1869 72.9859 61.9289 72.3622 62.8005 72.3622H63.9014C71.0331 72.3622 76.6159 69.5113 78.2476 61.2615C78.9293 57.8152 78.5764 54.9375 76.7728 52.9137C76.2268 52.3034 75.5497 51.7971 74.758 51.3843Z" fill="#179BD7"/>
</g>
<g filter="url(#filter9_d_10_957)">
<path d="M72.8064 50.6183C72.5214 50.5366 72.2273 50.4623 71.9257 50.3955C71.6226 50.3302 71.3119 50.2723 70.9922 50.2218C69.8732 50.0436 68.6472 49.959 67.3336 49.959H56.2463C55.9734 49.959 55.714 50.0199 55.4818 50.1297C54.9705 50.3718 54.5905 50.8484 54.4985 51.432L52.1399 66.1409L52.072 66.57C52.2274 65.6019 53.0673 64.8891 54.0642 64.8891H58.2144C66.3655 64.8891 72.7476 61.6299 74.6131 52.2011C74.6689 51.922 74.7156 51.6502 74.7578 51.3844C74.2858 51.138 73.7746 50.9271 73.2241 50.7474C73.0884 50.7029 72.9482 50.6598 72.8064 50.6183Z" fill="#222D65"/>
</g>
<g filter="url(#filter10_d_10_957)">
<path d="M54.4985 51.4318C54.5905 50.8483 54.9705 50.3717 55.4818 50.1311C55.7155 50.0212 55.9734 49.9604 56.2464 49.9604H67.3337C68.6472 49.9604 69.8732 50.045 70.9922 50.2232C71.3119 50.2737 71.6226 50.3316 71.9257 50.3969C72.2273 50.4637 72.5214 50.538 72.8064 50.6196C72.9482 50.6612 73.0884 50.7043 73.2257 50.7473C73.7761 50.927 74.2873 51.1393 74.7594 51.3843C75.3143 47.8994 74.7548 45.5266 72.8411 43.378C70.7313 41.0127 66.9235 40 62.0509 40H47.9053C46.9099 40 46.0609 40.7127 45.9071 41.6823L40.0151 78.4546C39.8989 79.1822 40.469 79.8385 41.214 79.8385H49.9472L52.1399 66.1408L54.4985 51.4318Z" fill="#253B80"/>
</g>
</g>
<defs>
<filter id="filter0_d_10_957" x="0" y="0" width="267" height="129" filterUnits="userSpaceOnUse" color-interpolation-filters="sRGB">
<feFlood flood-opacity="0" result="BackgroundImageFix"/>
<feColorMatrix in="SourceAlpha" type="matrix" values="0 0 0 0 0 0 0 0 0 0 0 0 0 0 0 0 0 0 127 0" result="hardAlpha"/>
<feOffset/>
<feGaussianBlur stdDeviation="20"/>
<feComposite in2="hardAlpha" operator="out"/>
<feColorMatrix type="matrix" values="0 0 0 0 0 0 0 0 0 0 0 0 0 0 0 0 0 0 0.38 0"/>
<feBlend mode="normal" in2="BackgroundImageFix" result="effect1_dropShadow_10_957"/>
<feBlend mode="normal" in="SourceGraphic" in2="effect1_dropShadow_10_957" result="shape"/>
</filter>
<filter id="filter1_d_10_957" x="53.7773" y="10.0212" width="104.922" height="108.208" filterUnits="userSpaceOnUse" color-interpolation-filters="sRGB">
<feFlood flood-opacity="0" result="BackgroundImageFix"/>
<feColorMatrix in="SourceAlpha" type="matrix" values="0 0 0 0 0 0 0 0 0 0 0 0 0 0 0 0 0 0 127 0" result="hardAlpha"/>
<feOffset/>
<feGaussianBlur stdDeviation="20"/>
<feComposite in2="hardAlpha" operator="out"/>
<feColorMatrix type="matrix" values="0 0 0 0 0 0 0 0 0 0 0 0 0 0 0 0 0 0 0.25 0"/>
<feBlend mode="normal" in2="BackgroundImageFix" result="effect1_dropShadow_10_957"/>
<feBlend mode="normal" in="SourceGraphic" in2="effect1_dropShadow_10_957" result="shape"/>
</filter>
<filter id="filter2_d_10_957" x="77.1587" y="18.957" width="104.217" height="99.7231" filterUnits="userSpaceOnUse" color-interpolation-filters="sRGB">
<feFlood flood-opacity="0" result="BackgroundImageFix"/>
<feColorMatrix in="SourceAlpha" type="matrix" values="0 0 0 0 0 0 0 0 0 0 0 0 0 0 0 0 0 0 127 0" result="hardAlpha"/>
<feOffset/>
<feGaussianBlur stdDeviation="20"/>
<feComposite in2="hardAlpha" operator="out"/>
<feColorMatrix type="matrix" values="0 0 0 0 0 0 0 0 0 0 0 0 0 0 0 0 0 0 0.25 0"/>
<feBlend mode="normal" in2="BackgroundImageFix" result="effect1_dropShadow_10_957"/>
<feBlend mode="normal" in="SourceGraphic" in2="effect1_dropShadow_10_957" result="shape"/>
</filter>
<filter id="filter3_d_10_957" x="103.811" y="19.4143" width="103.872" height="105.395" filterUnits="userSpaceOnUse" color-interpolation-filters="sRGB">
<feFlood flood-opacity="0" result="BackgroundImageFix"/>
<feColorMatrix in="SourceAlpha" type="matrix" values="0 0 0 0 0 0 0 0 0 0 0 0 0 0 0 0 0 0 127 0" result="hardAlpha"/>
<feOffset/>
<feGaussianBlur stdDeviation="20"/>
<feComposite in2="hardAlpha" operator="out"/>
<feColorMatrix type="matrix" values="0 0 0 0 0 0 0 0 0 0 0 0 0 0 0 0 0 0 0.25 0"/>
<feBlend mode="normal" in2="BackgroundImageFix" result="effect1_dropShadow_10_957"/>
<feBlend mode="normal" in="SourceGraphic" in2="effect1_dropShadow_10_957" result="shape"/>
</filter>
<filter id="filter4_d_10_957" x="127.342" y="10.0212" width="104.92" height="108.208" filterUnits="userSpaceOnUse" color-interpolation-filters="sRGB">
<feFlood flood-opacity="0" result="BackgroundImageFix"/>
<feColorMatrix in="SourceAlpha" type="matrix" values="0 0 0 0 0 0 0 0 0 0 0 0 0 0 0 0 0 0 127 0" result="hardAlpha"/>
<feOffset/>
<feGaussianBlur stdDeviation="20"/>
<feComposite in2="hardAlpha" operator="out"/>
<feColorMatrix type="matrix" values="0 0 0 0 0 0 0 0 0 0 0 0 0 0 0 0 0 0 0.25 0"/>
<feBlend mode="normal" in2="BackgroundImageFix" result="effect1_dropShadow_10_957"/>
<feBlend mode="normal" in="SourceGraphic" in2="effect1_dropShadow_10_957" result="shape"/>
</filter>
<filter id="filter5_d_10_957" x="150.729" y="18.957" width="104.216" height="99.7231" filterUnits="userSpaceOnUse" color-interpolation-filters="sRGB">
<feFlood flood-opacity="0" result="BackgroundImageFix"/>
<feColorMatrix in="SourceAlpha" type="matrix" values="0 0 0 0 0 0 0 0 0 0 0 0 0 0 0 0 0 0 127 0" result="hardAlpha"/>
<feOffset/>
<feGaussianBlur stdDeviation="20"/>
<feComposite in2="hardAlpha" operator="out"/>
<feColorMatrix type="matrix" values="0 0 0 0 0 0 0 0 0 0 0 0 0 0 0 0 0 0 0.25 0"/>
<feBlend mode="normal" in2="BackgroundImageFix" result="effect1_dropShadow_10_957"/>
<feBlend mode="normal" in="SourceGraphic" in2="effect1_dropShadow_10_957" result="shape"/>
</filter>
<filter id="filter6_d_10_957" x="175.661" y="10.0198" width="90.7153" height="108.209" filterUnits="userSpaceOnUse" color-interpolation-filters="sRGB">
<feFlood flood-opacity="0" result="BackgroundImageFix"/>
<feColorMatrix in="SourceAlpha" type="matrix" values="0 0 0 0 0 0 0 0 0 0 0 0 0 0 0 0 0 0 127 0" result="hardAlpha"/>
<feOffset/>
<feGaussianBlur stdDeviation="20"/>
<feComposite in2="hardAlpha" operator="out"/>
<feColorMatrix type="matrix" values="0 0 0 0 0 0 0 0 0 0 0 0 0 0 0 0 0 0 0.25 0"/>
<feBlend mode="normal" in2="BackgroundImageFix" result="effect1_dropShadow_10_957"/>
<feBlend mode="normal" in="SourceGraphic" in2="effect1_dropShadow_10_957" result="shape"/>
</filter>
<filter id="filter7_d_10_957" x="1.6001" y="1.52051" width="115.424" height="121.769" filterUnits="userSpaceOnUse" color-interpolation-filters="sRGB">
<feFlood flood-opacity="0" result="BackgroundImageFix"/>
<feColorMatrix in="SourceAlpha" type="matrix" values="0 0 0 0 0 0 0 0 0 0 0 0 0 0 0 0 0 0 127 0" result="hardAlpha"/>
<feOffset/>
<feGaussianBlur stdDeviation="20"/>
<feComposite in2="hardAlpha" operator="out"/>
<feColorMatrix type="matrix" values="0 0 0 0 0 0 0 0 0 0 0 0 0 0 0 0 0 0 0.25 0"/>
<feBlend mode="normal" in2="BackgroundImageFix" result="effect1_dropShadow_10_957"/>
<feBlend mode="normal" in="SourceGraphic" in2="effect1_dropShadow_10_957" result="shape"/>
</filter>
<filter id="filter8_d_10_957" x="9.33252" y="11.3843" width="109.238" height="113.424" filterUnits="userSpaceOnUse" color-interpolation-filters="sRGB">
<feFlood flood-opacity="0" result="BackgroundImageFix"/>
<feColorMatrix in="SourceAlpha" type="matrix" values="0 0 0 0 0 0 0 0 0 0 0 0 0 0 0 0 0 0 127 0" result="hardAlpha"/>
<feOffset/>
<feGaussianBlur stdDeviation="20"/>
<feComposite in2="hardAlpha" operator="out"/>
<feColorMatrix type="matrix" values="0 0 0 0 0 0 0 0 0 0 0 0 0 0 0 0 0 0 0.25 0"/>
<feBlend mode="normal" in2="BackgroundImageFix" result="effect1_dropShadow_10_957"/>
<feBlend mode="normal" in="SourceGraphic" in2="effect1_dropShadow_10_957" result="shape"/>
</filter>
<filter id="filter9_d_10_957" x="12.072" y="9.95898" width="102.686" height="96.6111" filterUnits="userSpaceOnUse" color-interpolation-filters="sRGB">
<feFlood flood-opacity="0" result="BackgroundImageFix"/>
<feColorMatrix in="SourceAlpha" type="matrix" values="0 0 0 0 0 0 0 0 0 0 0 0 0 0 0 0 0 0 127 0" result="hardAlpha"/>
<feOffset/>
<feGaussianBlur stdDeviation="20"/>
<feComposite in2="hardAlpha" operator="out"/>
<feColorMatrix type="matrix" values="0 0 0 0 0 0 0 0 0 0 0 0 0 0 0 0 0 0 0.25 0"/>
<feBlend mode="normal" in2="BackgroundImageFix" result="effect1_dropShadow_10_957"/>
<feBlend mode="normal" in="SourceGraphic" in2="effect1_dropShadow_10_957" result="shape"/>
</filter>
<filter id="filter10_d_10_957" x="0" y="0" width="114.963" height="119.838" filterUnits="userSpaceOnUse" color-interpolation-filters="sRGB">
<feFlood flood-opacity="0" result="BackgroundImageFix"/>
<feColorMatrix in="SourceAlpha" type="matrix" values="0 0 0 0 0 0 0 0 0 0 0 0 0 0 0 0 0 0 127 0" result="hardAlpha"/>
<feOffset/>
<feGaussianBlur stdDeviation="20"/>
<feComposite in2="hardAlpha" operator="out"/>
<feColorMatrix type="matrix" values="0 0 0 0 0 0 0 0 0 0 0 0 0 0 0 0 0 0 0.25 0"/>
<feBlend mode="normal" in2="BackgroundImageFix" result="effect1_dropShadow_10_957"/>
<feBlend mode="normal" in="SourceGraphic" in2="effect1_dropShadow_10_957" result="shape"/>
</filter>
<clipPath id="clip0_10_957">
<rect width="187" height="49" fill="white" transform="translate(40 40)"/>
</clipPath>
</defs>
</svg>
