<svg width="185" height="59" viewBox="0 0 185 59" fill="none" xmlns="http://www.w3.org/2000/svg">
<path d="M26.4091 54.6812C40.0175 54.6812 51.0493 43.6542 51.0493 30.0516C51.0493 16.4491 40.0175 5.42212 26.4091 5.42212C12.8006 5.42212 1.7688 16.4491 1.7688 30.0516C1.7688 43.6542 12.8006 54.6812 26.4091 54.6812Z" fill="#26A17B"/>
<path d="M29.0355 32.3245V32.3205C28.8652 32.3324 27.9857 32.3839 26.0287 32.3839C24.464 32.3839 23.3666 32.3403 22.9784 32.3205V32.3245C16.961 32.0592 12.4726 31.0138 12.4726 29.7586C12.4726 28.5073 16.9649 27.458 22.9784 27.1927V31.2831C23.3706 31.3108 24.4996 31.3781 26.0565 31.3781C27.9263 31.3781 28.8612 31.2989 29.0355 31.2831V27.1967C35.0411 27.4659 39.5175 28.5113 39.5175 29.7626C39.5175 31.0138 35.0371 32.0592 29.0355 32.3285M29.0355 26.773V23.1142H37.414V17.5349H14.6039V23.1142H22.9824V26.773C16.1726 27.0858 11.0544 28.4321 11.0544 30.0477C11.0544 31.6632 16.1766 33.0095 22.9824 33.3263V45.055H29.0395V33.3263C35.8373 33.0135 40.9476 31.6672 40.9476 30.0516C40.9476 28.44 35.8373 27.0897 29.0395 26.7769" fill="white"/>
<path d="M71.9797 19.0594V24.9752H77.7317V29.4141H71.9401V38.4145C71.9401 40.4023 73.0374 41.3725 74.6457 41.3725C75.4499 41.3725 76.3809 41.119 77.1415 40.7389L78.5795 45.1342C77.1018 45.7242 75.8738 45.9776 74.309 46.0212C69.785 46.1915 66.8258 43.6137 66.8258 38.4145V29.4141H62.9357V24.9752H66.8258V19.6098L71.9797 19.0594ZM171.147 24.698L171.527 27.1055C173.135 24.5278 175.29 24.1476 177.406 24.1476C179.561 24.1476 181.633 24.991 182.774 26.1315L180.448 30.6099C179.391 29.7229 178.42 29.2557 176.728 29.2557C174.023 29.2557 171.527 30.6931 171.527 34.538V45.5262H166.369V24.6901L171.147 24.698ZM158.506 32.6848C158.169 29.9803 156.054 28.6261 153.094 28.6261C150.306 28.6261 148.02 29.9803 147.259 32.6848H158.506ZM147.176 36.9534C147.513 39.5312 149.755 41.3923 153.392 41.3923C155.293 41.3923 157.789 40.6716 158.973 39.448L162.269 42.7029C160.071 44.9837 156.478 46.0845 153.304 46.0845C146.118 46.0845 141.844 41.6457 141.844 34.9696C141.844 28.63 146.158 24.0645 152.924 24.0645C159.9 24.0645 164.258 28.3766 163.454 36.9534H147.176ZM124.429 15.947V27.5253C126.291 25.1178 128.573 24.3971 130.942 24.3971C136.86 24.3971 139.483 28.4123 139.483 34.5419V45.5302H134.325V34.5855C134.325 30.7802 132.336 29.1765 129.587 29.1765C126.541 29.1765 124.429 31.7543 124.429 34.8825V45.5341H119.272V15.951L124.429 15.947ZM110.731 18.8218V24.7376H116.483V29.1765H110.691V38.177C110.691 40.1647 111.792 41.1349 113.397 41.1349C114.201 41.1349 115.132 40.8815 115.892 40.5013L117.33 44.8966C115.853 45.4866 114.625 45.74 113.06 45.7836C108.536 45.9539 105.577 43.3721 105.577 38.177V29.1765H101.687V24.7376H105.577V19.3722L110.731 18.8218ZM96.4813 32.6848C96.1446 29.9803 94.0291 28.6261 91.0699 28.6261C88.2811 28.6261 85.9953 29.9803 85.2347 32.6848H96.4813ZM85.1515 36.9534C85.4882 39.5312 87.7304 41.3923 91.367 41.3923C93.2685 41.3923 95.7643 40.6716 96.9487 39.448L100.245 42.7029C98.0461 44.9837 94.453 46.0845 91.2799 46.0845C84.0898 46.0845 79.8194 41.6457 79.8194 34.9696C79.8194 28.63 84.1334 24.0645 90.8956 24.0645C97.8717 24.0645 102.225 28.3766 101.425 36.9534H85.1515Z" fill="white"/>
</svg>
