<svg width="187" height="81" viewBox="0 0 187 81" fill="none" xmlns="http://www.w3.org/2000/svg">
<g clip-path="url(#clip0_10_982)">
<mask id="mask0_10_982" style="mask-type:luminance" maskUnits="userSpaceOnUse" x="0" y="0" width="187" height="81">
<path d="M186.004 0H0V80.1409H186.004V0Z" fill="white"/>
</mask>
<g mask="url(#mask0_10_982)">
<path d="M31.1103 38.9532H28.1231C28.0202 38.9532 27.9213 38.9947 27.8485 39.0683C27.7754 39.142 27.7346 39.2419 27.7346 39.3459V49.3359C27.7346 49.3909 27.7239 49.4452 27.703 49.4957C27.6824 49.5463 27.652 49.5925 27.6136 49.6312C27.5753 49.6698 27.5298 49.7007 27.4796 49.7216C27.4295 49.7424 27.3759 49.7532 27.3217 49.7532H21.2746C21.2203 49.7532 21.1667 49.7424 21.1165 49.7216C21.0665 49.7007 21.021 49.6698 20.9826 49.6312C20.9443 49.5925 20.9139 49.5463 20.8931 49.4957C20.8724 49.4452 20.8617 49.3909 20.8617 49.3359V21.5015C20.8617 21.3909 20.9052 21.2847 20.9826 21.2065C21.06 21.1282 21.165 21.0842 21.2746 21.0842H31.2803C37.4974 21.0842 42.3789 23.367 42.3789 29.9205C42.3789 36.4741 37.0603 38.9532 31.1103 38.9532ZM30.6974 26.6805H28.1231C28.0202 26.6805 27.9213 26.722 27.8485 26.7956C27.7754 26.8692 27.7346 26.9691 27.7346 27.0732V33.0378C27.7346 33.1421 27.7754 33.242 27.8485 33.3156C27.9213 33.3893 28.0202 33.4305 28.1231 33.4305H30.5517C33.126 33.4305 35.4089 32.6696 35.4089 29.945C35.4089 27.2205 33.1746 26.6805 30.7217 26.6805H30.6974Z" fill="white"/>
<path d="M68.8746 49.508L66.8589 44.378C66.8295 44.3046 66.7792 44.2423 66.7141 44.1983C66.6493 44.1546 66.5725 44.1316 66.4946 44.1326H56.0517C55.9735 44.1316 55.897 44.1546 55.8322 44.1983C55.7671 44.2423 55.7166 44.3046 55.6874 44.378L53.7931 49.508C53.7638 49.5812 53.7135 49.6437 53.6484 49.6874C53.5836 49.7311 53.5068 49.7542 53.4288 49.7535H46.8231C46.759 49.754 46.6959 49.7387 46.6393 49.7088C46.5825 49.6788 46.5341 49.6354 46.498 49.5819C46.462 49.5284 46.4394 49.4668 46.4326 49.4025C46.4258 49.3384 46.4348 49.2734 46.4589 49.2135L58.0431 21.3297C58.0723 21.2565 58.1228 21.194 58.1879 21.1502C58.2527 21.1064 58.3292 21.0834 58.4074 21.0842H64.5517C64.6297 21.0834 64.7064 21.1064 64.7713 21.1502C64.8363 21.194 64.8866 21.2565 64.916 21.3297L76.3789 49.238C76.4029 49.2979 76.4119 49.3629 76.4051 49.427C76.398 49.4913 76.3757 49.5529 76.3398 49.6064C76.3036 49.6599 76.255 49.7034 76.1984 49.7333C76.1416 49.7633 76.0784 49.7785 76.0146 49.778H69.2388C69.1577 49.7768 69.0793 49.7503 69.014 49.7019C68.9486 49.6536 68.8998 49.5856 68.8746 49.508ZM60.9817 29.7244L57.946 38.0453C57.9268 38.1037 57.9217 38.166 57.9309 38.2272C57.9402 38.288 57.9635 38.346 57.9989 38.3963C58.0344 38.4464 58.081 38.4873 58.1352 38.5161C58.1893 38.5445 58.2493 38.5598 58.3103 38.5607H64.3331C64.3941 38.5598 64.4541 38.5445 64.5082 38.5161C64.5624 38.4873 64.609 38.4464 64.6445 38.3963C64.6799 38.346 64.7033 38.288 64.7125 38.2272C64.7217 38.166 64.7164 38.1037 64.6974 38.0453L61.7103 29.7244C61.6802 29.65 61.6284 29.5867 61.5619 29.543C61.4951 29.4993 61.4169 29.4774 61.3375 29.4801C61.2581 29.4828 61.1816 29.5098 61.118 29.558C61.0543 29.6061 61.0067 29.6726 60.9817 29.7489V29.7244Z" fill="white"/>
<path d="M101.563 49.5816L95.8071 40.1807C95.7721 40.1248 95.7235 40.0789 95.6662 40.0472C95.6089 40.0153 95.5446 39.9986 95.4792 39.9986C95.4139 39.9986 95.3496 40.0153 95.2922 40.0472C95.2349 40.0789 95.1866 40.1248 95.1514 40.1807L89.6142 49.5816C89.58 49.6418 89.5302 49.6916 89.4705 49.7262C89.4107 49.7606 89.343 49.7785 89.2742 49.778H81.9885C81.9183 49.7768 81.8499 49.7567 81.7901 49.7193C81.7304 49.6823 81.6818 49.6293 81.6493 49.5664C81.617 49.5033 81.6021 49.4329 81.6063 49.362C81.6104 49.2913 81.6335 49.2228 81.6728 49.1644L91.0714 34.8296C91.1153 34.7645 91.1386 34.6877 91.1386 34.6089C91.1386 34.5299 91.1153 34.453 91.0714 34.388L82.5714 21.6979C82.532 21.6392 82.509 21.5709 82.5048 21.5001C82.5007 21.4293 82.5155 21.3587 82.5478 21.2958C82.5804 21.2328 82.6289 21.1799 82.6887 21.1427C82.7484 21.1054 82.8169 21.0853 82.8871 21.0842H90.1728C90.2415 21.0836 90.3093 21.1015 90.369 21.136C90.4288 21.1705 90.4786 21.2204 90.5128 21.2806L95.37 29.4296C95.4052 29.4855 95.4535 29.5314 95.5108 29.5631C95.5681 29.595 95.6325 29.6117 95.6978 29.6117C95.7631 29.6117 95.8275 29.595 95.8848 29.5631C95.9421 29.5314 95.9907 29.4855 96.0257 29.4296L100.883 21.2806C100.917 21.2204 100.967 21.1705 101.027 21.136C101.086 21.1015 101.154 21.0836 101.223 21.0842H108.241C108.312 21.0853 108.38 21.1054 108.44 21.1427C108.5 21.1799 108.548 21.2328 108.581 21.2958C108.613 21.3587 108.628 21.4293 108.624 21.5001C108.62 21.5709 108.597 21.6392 108.557 21.6979L100.033 34.3632C99.9891 34.4285 99.9655 34.5053 99.9655 34.5841C99.9655 34.6632 99.9891 34.74 100.033 34.8053L109.747 49.1153C109.787 49.1737 109.81 49.2422 109.814 49.3129C109.818 49.3838 109.803 49.4543 109.771 49.5173C109.738 49.5802 109.69 49.6332 109.63 49.6702C109.57 49.7076 109.502 49.7277 109.431 49.7289H102C101.921 49.7547 101.836 49.7542 101.758 49.7277C101.679 49.7012 101.611 49.6499 101.563 49.5816Z" fill="white"/>
<path d="M130.196 50.5394C122.74 50.5394 118.053 45.8267 118.053 38.954V21.4775C118.053 21.3734 118.094 21.2735 118.167 21.1998C118.24 21.1262 118.339 21.0848 118.442 21.0848H124.465C124.567 21.0848 124.666 21.1262 124.739 21.1998C124.812 21.2735 124.853 21.3734 124.853 21.4775V38.3649C124.804 39.103 124.905 39.8433 125.151 40.5403C125.396 41.2372 125.781 41.8756 126.281 42.4161C126.78 42.9566 127.385 43.3874 128.056 43.6822C128.728 43.9767 129.452 44.1286 130.184 44.1286C130.916 44.1286 131.64 43.9767 132.311 43.6822C132.983 43.3874 133.587 42.9566 134.087 42.4161C134.587 41.8756 134.972 41.2372 135.217 40.5403C135.463 39.8433 135.564 39.103 135.515 38.3649V21.4775C135.513 21.4165 135.525 21.3559 135.55 21.3005C135.575 21.2451 135.613 21.1964 135.66 21.1583C135.707 21.1202 135.762 21.0937 135.822 21.081C135.881 21.0682 135.942 21.0695 136 21.0848H142.072C142.175 21.0848 142.273 21.1262 142.346 21.1998C142.419 21.2735 142.46 21.3734 142.46 21.4775V38.954C142.412 45.8267 137.603 50.5394 130.196 50.5394Z" fill="white"/>
<path d="M179.714 49.7532C179.605 49.7532 179.5 49.7093 179.422 49.6312C179.345 49.5529 179.301 49.4466 179.301 49.3359L179.471 29.4541L172.186 49.4832C172.156 49.563 172.103 49.6317 172.033 49.6798C171.964 49.7282 171.881 49.7537 171.797 49.7532H167.571C167.487 49.7537 167.405 49.7282 167.335 49.6798C167.266 49.6317 167.213 49.563 167.183 49.4832L159.994 29.4541L160.14 49.3359C160.14 49.3909 160.129 49.4452 160.108 49.4957C160.088 49.5463 160.057 49.5924 160.019 49.6312C159.981 49.6698 159.935 49.7007 159.885 49.7215C159.835 49.7424 159.781 49.7532 159.727 49.7532H153.971C153.917 49.7532 153.864 49.7424 153.813 49.7215C153.763 49.7007 153.718 49.6698 153.68 49.6312C153.641 49.5924 153.611 49.5463 153.59 49.4957C153.569 49.4452 153.559 49.3909 153.559 49.3359V21.5015C153.559 21.3908 153.602 21.2847 153.68 21.2064C153.757 21.1282 153.862 21.0842 153.971 21.0842H163.006C163.09 21.0837 163.172 21.1094 163.242 21.1576C163.311 21.2059 163.364 21.2745 163.394 21.3542L169.757 39.4687H170L176.071 21.3542C176.101 21.2745 176.154 21.2059 176.224 21.1576C176.293 21.1094 176.376 21.0837 176.46 21.0842H185.664C185.774 21.0842 185.879 21.1282 185.956 21.2064C186.034 21.2847 186.077 21.3908 186.077 21.5015V49.3605C186.077 49.4712 186.034 49.5775 185.956 49.6558C185.879 49.7338 185.774 49.7778 185.664 49.7778L179.714 49.7532Z" fill="white"/>
<path d="M0 24.5455H7.40714C7.43893 20.031 9.2274 15.7106 12.3859 12.5184C15.5444 9.32609 19.8191 7.51849 24.2857 7.48636V0C17.8448 0 11.6676 2.58604 7.11312 7.18919C2.55867 11.7924 0 18.0356 0 24.5455Z" fill="#FF5252"/>
<path d="M20.8617 65.4121H24.4074C26.836 65.4121 28.5117 66.2957 28.5117 68.603C28.5117 70.9103 26.7146 71.843 24.286 71.843H22.8046V76.3839H20.8617V65.4121ZM24.1403 70.3212C25.4031 70.3212 26.5689 70.0021 26.5689 68.7012C26.5689 67.4003 25.4274 67.1548 24.1403 67.1548H22.8046V70.1985L24.1403 70.3212Z" fill="#727B87"/>
<path d="M35.0203 75.4512C34.7655 75.8196 34.4226 76.1163 34.0231 76.3139C33.6239 76.5115 33.1814 76.6031 32.7374 76.5802C32.403 76.6286 32.0625 76.6058 31.7374 76.5135C31.4124 76.4212 31.1098 76.2614 30.8495 76.0442C30.5889 75.8272 30.3759 75.5574 30.2244 75.2526C30.0728 74.9475 29.9856 74.6139 29.9689 74.273C29.9689 72.0393 32.7374 71.8184 35.0446 71.8184V71.6221C35.0446 70.7139 34.2674 70.2475 33.3446 70.2475C32.5888 70.2637 31.8678 70.571 31.3289 71.1066L30.3817 69.9775C31.2227 69.1916 32.3207 68.7461 33.466 68.7257C33.8966 68.6604 34.3364 68.695 34.7519 68.8271C35.1675 68.9591 35.5478 69.1852 35.8637 69.4881C36.1799 69.791 36.4235 70.1628 36.576 70.5752C36.7288 70.9873 36.7864 71.4294 36.7446 71.8675V76.4084H35.0203V75.4512ZM35.0203 72.9966H34.6074C33.4417 72.9966 31.7903 73.1439 31.7903 74.2484C31.7903 74.9602 32.446 75.1811 33.0774 75.1811C33.3356 75.2116 33.5972 75.1831 33.8432 75.0984C34.0892 75.0137 34.3133 74.8746 34.4994 74.6912C34.6856 74.5076 34.8289 74.2847 34.919 74.0383C35.0091 73.7919 35.0436 73.5283 35.0203 73.2666V72.9966Z" fill="#727B87"/>
<path d="M38.8572 68.9478H40.8972L42.9615 74.3723L44.7829 68.9478H46.7015L43.2043 78.005C43.0712 78.6412 42.7154 79.2075 42.2023 79.6C41.6894 79.9922 41.0533 80.1842 40.4115 80.1405C40.0967 80.1775 39.7791 80.1775 39.4643 80.1405L39.61 78.5205C39.8356 78.5529 40.0644 78.5529 40.29 78.5205C41.0672 78.5205 41.2857 78.1278 41.6015 77.3423L41.9658 76.385L38.8572 68.9478Z" fill="#727B87"/>
<path d="M52.9186 65.4121H55.0314L57.1443 73.4876L59.5729 65.4121H61.5643L63.9929 73.4876L66.1543 65.4121H68.2186L65.0372 76.4085H63.1429L60.5929 68.1612L58.0429 76.4085H56.1L52.9186 65.4121Z" fill="#727B87"/>
<path d="M71.4733 65.2903C71.6919 65.2999 71.9029 65.3742 72.0802 65.5041C72.2575 65.6337 72.393 65.8134 72.4703 66.0203C72.5472 66.2272 72.5626 66.4525 72.5142 66.6683C72.4657 66.884 72.3556 67.0806 72.1978 67.2336C72.0397 67.3865 71.8408 67.4893 71.6254 67.5291C71.4102 67.5689 71.188 67.5438 70.9866 67.4572C70.7856 67.3703 70.6139 67.2257 70.4929 67.0414C70.3722 66.8568 70.3079 66.6405 70.3076 66.4194C70.3108 66.2679 70.3433 66.1185 70.4038 65.9798C70.464 65.8411 70.5507 65.7157 70.659 65.6109C70.7673 65.5061 70.8948 65.4236 71.0347 65.3686C71.1744 65.3136 71.3235 65.2871 71.4733 65.2903ZM70.5748 68.9476H72.4205V76.3112H70.5748V68.9476Z" fill="#727B87"/>
<path d="M74.7515 70.4454V68.9481H76.0386V66.7881H77.86V68.9481H79.7057V70.4454H77.86V73.9063C77.86 74.569 78.0057 75.0599 78.8315 75.0599C79.0979 75.0658 79.3626 75.0157 79.6086 74.9126V76.3854C79.2093 76.5194 78.7909 76.5857 78.37 76.5817C76.4272 76.5817 75.9415 75.379 75.9415 73.9308V70.4454H74.7515Z" fill="#727B87"/>
<path d="M89.0317 71.746V76.4096H87.186V72.3105C87.186 71.4269 86.9917 70.3469 85.826 70.3469C85.5768 70.3523 85.3315 70.41 85.1054 70.5163C84.8796 70.6225 84.678 70.7752 84.5136 70.9645C84.3492 71.1537 84.2253 71.3756 84.1503 71.6159C84.0752 71.8559 84.0504 72.1093 84.0774 72.3596V76.4342H82.2317V64.6523H84.0774V69.9787C84.2962 69.5848 84.6182 69.2595 85.008 69.0386C85.3981 68.8177 85.8408 68.71 86.2874 68.7269C86.6714 68.7178 87.0529 68.7914 87.4065 68.9434C87.7598 69.0951 88.0773 69.3216 88.3371 69.6076C88.597 69.8933 88.7932 70.232 88.9132 70.6009C89.0329 70.9699 89.0732 71.3601 89.0317 71.746Z" fill="#727B87"/>
<path d="M97.4589 65.4121H104.745V67.1303H99.3774V69.9285H104.429V71.573H99.3774V74.6903H104.939V76.433H97.4589V65.4121Z" fill="#727B87"/>
<path d="M112.491 75.4515C112.237 75.8199 111.894 76.1167 111.494 76.3143C111.095 76.5116 110.653 76.6034 110.209 76.5806C109.874 76.6287 109.534 76.6061 109.209 76.5138C108.884 76.4213 108.581 76.2615 108.321 76.0445C108.06 75.8273 107.847 75.5578 107.696 75.2527C107.544 74.9478 107.457 74.6143 107.44 74.2733C107.44 72.0397 110.209 71.8188 112.516 71.8188V71.6224C112.516 70.7142 111.739 70.2479 110.816 70.2479C110.06 70.2638 109.339 70.5711 108.8 71.107L107.853 69.9779C108.688 69.1973 109.776 68.7523 110.913 68.726C111.34 68.6689 111.774 68.7096 112.184 68.8453C112.593 68.9811 112.967 69.2084 113.277 69.5103C113.587 69.8122 113.826 70.1811 113.976 70.5893C114.126 70.9972 114.183 71.4344 114.143 71.8679V76.4088H112.419L112.491 75.4515ZM112.491 72.997H112.079C110.913 72.997 109.261 73.1442 109.261 74.2488C109.261 74.9606 109.917 75.1815 110.549 75.1815C110.807 75.2117 111.068 75.1835 111.314 75.0988C111.56 75.0139 111.785 74.8747 111.971 74.6913C112.157 74.508 112.3 74.2851 112.39 74.0387C112.48 73.7922 112.515 73.5286 112.491 73.267V72.997Z" fill="#727B87"/>
<path d="M121.575 70.9357C121.383 70.689 121.141 70.4882 120.863 70.3481C120.586 70.2079 120.282 70.1321 119.972 70.1257C119.389 70.1257 118.781 70.3466 118.781 70.9357C118.781 71.5248 119.34 71.6721 120.384 71.9175C121.429 72.163 122.813 72.6784 122.813 74.1512C122.813 75.6239 121.356 76.6057 119.729 76.6057C119.167 76.6194 118.608 76.5176 118.086 76.3067C117.564 76.0956 117.09 75.78 116.693 75.3784L117.907 74.2248C118.133 74.5139 118.421 74.7481 118.749 74.9096C119.077 75.0711 119.437 75.1558 119.802 75.1575C120.336 75.1575 120.991 74.9366 120.991 74.2739C120.991 73.6112 120.433 73.4639 119.291 73.1939C118.15 72.9239 117.106 72.4821 117.106 71.083C117.106 69.6839 118.587 68.6284 120.044 68.6284C120.559 68.6034 121.073 68.6915 121.551 68.8864C122.029 69.0813 122.46 69.3785 122.813 69.7575L121.575 70.9357Z" fill="#727B87"/>
<path d="M132.528 73.2688H126.918C126.978 73.7872 127.229 74.2638 127.62 74.6045C128.011 74.9454 128.514 75.1256 129.03 75.1099C129.408 75.1293 129.784 75.0517 130.124 74.8843C130.464 74.7169 130.756 74.4651 130.973 74.1524L132.212 75.159C131.691 75.7974 130.99 76.2606 130.203 76.4867C129.415 76.713 128.578 76.6914 127.803 76.4248C127.028 76.1582 126.351 75.6595 125.863 74.995C125.375 74.3303 125.099 73.5314 125.072 72.7044C125.048 72.1777 125.132 71.6519 125.32 71.1603C125.508 70.6684 125.795 70.2214 126.162 69.8476C126.53 69.4738 126.97 69.1812 127.456 68.9885C127.941 68.7956 128.461 68.707 128.982 68.7278C129.493 68.7116 130.002 68.8091 130.473 69.0131C130.943 69.2173 131.363 69.5234 131.704 69.9095C132.044 70.2958 132.296 70.7528 132.443 71.2484C132.59 71.7442 132.627 72.2663 132.552 72.7778C132.552 72.9497 132.552 73.0969 132.528 73.2688ZM130.706 71.9433C130.724 71.7057 130.691 71.4666 130.61 71.2428C130.529 71.0189 130.401 70.8152 130.235 70.6453C130.069 70.4757 129.87 70.3437 129.649 70.2585C129.429 70.1733 129.193 70.137 128.958 70.1515C128.455 70.1304 127.964 70.3041 127.585 70.6375C127.206 70.9706 126.967 71.4379 126.918 71.9433H130.706Z" fill="#727B87"/>
</g>
</g>
<defs>
<clipPath id="clip0_10_982">
<rect width="187" height="81" fill="white"/>
</clipPath>
</defs>
</svg>
