<svg width="116" height="116" viewBox="0 0 116 116" fill="none" xmlns="http://www.w3.org/2000/svg">
<path d="M28.2751 82.6501C32.3834 79.5084 36.9751 77.0305 42.0501 75.2164C47.1251 73.4055 52.4417 72.5001 58.0001 72.5001C63.5584 72.5001 68.8751 73.4055 73.9501 75.2164C79.0251 77.0305 83.6167 79.5084 87.7251 82.6501C90.5445 79.3473 92.7405 75.6015 94.3129 71.4126C95.8821 67.2237 96.6667 62.7529 96.6667 58.0001C96.6667 47.2862 92.9016 38.1625 85.3712 30.6289C77.8377 23.0986 68.714 19.3334 58.0001 19.3334C47.2862 19.3334 38.1641 23.0986 30.6337 30.6289C23.1002 38.1625 19.3334 47.2862 19.3334 58.0001C19.3334 62.7529 20.1196 67.2237 21.6921 71.4126C23.2613 75.6015 25.4556 79.3473 28.2751 82.6501ZM58.0001 62.8334C53.2473 62.8334 49.2389 61.203 45.9747 57.9421C42.7139 54.678 41.0834 50.6695 41.0834 45.9167C41.0834 41.164 42.7139 37.1555 45.9747 33.8914C49.2389 30.6305 53.2473 29.0001 58.0001 29.0001C62.7529 29.0001 66.7613 30.6305 70.0254 33.8914C73.2863 37.1555 74.9167 41.164 74.9167 45.9167C74.9167 50.6695 73.2863 54.678 70.0254 57.9421C66.7613 61.203 62.7529 62.8334 58.0001 62.8334ZM58.0001 106.333C51.314 106.333 45.0306 105.064 39.1501 102.525C33.2695 99.9889 28.1542 96.5459 23.8042 92.1959C19.4542 87.8459 16.0113 82.7306 13.4754 76.8501C10.9363 70.9695 9.66675 64.6862 9.66675 58.0001C9.66675 51.314 10.9363 45.0306 13.4754 39.1501C16.0113 33.2695 19.4542 28.1542 23.8042 23.8042C28.1542 19.4542 33.2695 16.0097 39.1501 13.4706C45.0306 10.9347 51.314 9.66675 58.0001 9.66675C64.6862 9.66675 70.9695 10.9347 76.8501 13.4706C82.7306 16.0097 87.8459 19.4542 92.1959 23.8042C96.5459 28.1542 99.9889 33.2695 102.525 39.1501C105.064 45.0306 106.333 51.314 106.333 58.0001C106.333 64.6862 105.064 70.9695 102.525 76.8501C99.9889 82.7306 96.5459 87.8459 92.1959 92.1959C87.8459 96.5459 82.7306 99.9889 76.8501 102.525C70.9695 105.064 64.6862 106.333 58.0001 106.333Z" fill="white"/>
</svg>
