<svg width="116" height="116" viewBox="0 0 116 116" fill="none" xmlns="http://www.w3.org/2000/svg">
<path d="M53.1667 29.0001H67.6667L83.5684 13.0501C84.0177 12.597 84.5523 12.2375 85.1412 11.9921C85.7302 11.7467 86.362 11.6204 87 11.6204C87.6381 11.6204 88.2698 11.7467 88.8588 11.9921C89.4478 12.2375 89.9824 12.597 90.4317 13.0501L102.902 25.5684C103.802 26.474 104.307 27.699 104.307 28.9759C104.307 30.2528 103.802 31.4778 102.902 32.3834L91.8334 43.5001H53.1667V53.1667C53.1667 54.4486 52.6575 55.678 51.751 56.5844C50.8446 57.4908 49.6152 58 48.3334 58C47.0515 58 45.8221 57.4908 44.9157 56.5844C44.0093 55.678 43.5 54.4486 43.5 53.1667V38.6667C43.5 36.103 44.5185 33.6442 46.3313 31.8314C48.1442 30.0185 50.6029 29.0001 53.1667 29.0001ZM24.1667 53.1667V72.5L13.0984 83.5684C12.1982 84.474 11.6929 85.699 11.6929 86.9759C11.6929 88.2528 12.1982 89.4778 13.0984 90.3834L25.5684 102.902C26.0177 103.355 26.5523 103.714 27.1412 103.96C27.7302 104.205 28.362 104.331 29 104.331C29.6381 104.331 30.2698 104.205 30.8588 103.96C31.4478 103.714 31.9824 103.355 32.4317 102.902L53.1667 82.1667H72.5C73.7819 82.1667 75.0113 81.6575 75.9177 80.7511C76.8241 79.8446 77.3334 78.6153 77.3334 77.3334V72.5H82.1667C83.4486 72.5 84.678 71.9908 85.5844 71.0844C86.4908 70.178 87 68.9486 87 67.6667V62.8334H91.8334C93.1152 62.8334 94.3446 62.3242 95.2511 61.4177C96.1575 60.5113 96.6667 59.2819 96.6667 58V53.1667H62.8334V58C62.8334 60.5638 61.8149 63.0226 60.0021 64.8354C58.1892 66.6483 55.7305 67.6667 53.1667 67.6667H43.5C40.9363 67.6667 38.4775 66.6483 36.6647 64.8354C34.8518 63.0226 33.8334 60.5638 33.8334 58V43.5001L24.1667 53.1667Z" fill="white"/>
</svg>
