<svg width="116" height="116" viewBox="0 0 116 116" fill="none" xmlns="http://www.w3.org/2000/svg">
<path d="M58 106.333C31.3055 106.333 9.66663 84.6946 9.66663 58.0001C9.66663 31.3056 31.3055 9.66675 58 9.66675C84.6945 9.66675 106.333 31.3056 106.333 58.0001C106.333 84.6946 84.6945 106.333 58 106.333ZM41.0833 67.6667V77.3334H53.1666V87.0001H62.8333V77.3334H67.6666C70.8713 77.3334 73.9448 76.0603 76.2108 73.7943C78.4769 71.5282 79.75 68.4548 79.75 65.2501C79.75 62.0454 78.4769 58.9719 76.2108 56.7059C73.9448 54.4398 70.8713 53.1667 67.6666 53.1667H48.3333C47.6923 53.1667 47.0777 52.9121 46.6244 52.4589C46.1712 52.0057 45.9166 51.391 45.9166 50.7501C45.9166 50.1091 46.1712 49.4944 46.6244 49.0412C47.0777 48.588 47.6923 48.3334 48.3333 48.3334H74.9166V38.6667H62.8333V29.0001H53.1666V38.6667H48.3333C45.1286 38.6667 42.0551 39.9398 39.7891 42.2059C37.523 44.4719 36.25 47.5454 36.25 50.7501C36.25 53.9548 37.523 57.0282 39.7891 59.2943C42.0551 61.5603 45.1286 62.8334 48.3333 62.8334H67.6666C68.3076 62.8334 68.9223 63.088 69.3755 63.5412C69.8287 63.9944 70.0833 64.6091 70.0833 65.2501C70.0833 65.891 69.8287 66.5057 69.3755 66.9589C68.9223 67.4121 68.3076 67.6667 67.6666 67.6667H41.0833Z" fill="white"/>
</svg>
