<svg width="250" height="44" viewBox="0 0 250 44" fill="none" xmlns="http://www.w3.org/2000/svg">
<circle cx="5" cy="22" r="5" fill="white"/>
<circle cx="95" cy="22" r="5" fill="white"/>
<circle cx="185" cy="22" r="5" fill="white"/>
<circle cx="35" cy="22" r="5" fill="white"/>
<g filter="url(#filter0_d_40_3)">
<circle cx="125" cy="22" r="5" fill="#2572FF"/>
</g>
<circle cx="215" cy="22" r="5" fill="white"/>
<path d="M70 22C70 24.7614 67.7614 27 65 27C62.2386 27 60 24.7614 60 22C60 19.2386 62.2386 17 65 17C67.7614 17 70 19.2386 70 22Z" fill="white"/>
<path d="M160 22C160 24.7614 157.761 27 155 27C152.239 27 150 24.7614 150 22C150 19.2386 152.239 17 155 17C157.761 17 160 19.2386 160 22Z" fill="white"/>
<path d="M250 22C250 24.7614 247.761 27 245 27C242.239 27 240 24.7614 240 22C240 19.2386 242.239 17 245 17C247.761 17 250 19.2386 250 22Z" fill="white"/>
<defs>
<filter id="filter0_d_40_3" x="103" y="0" width="44" height="44" filterUnits="userSpaceOnUse" color-interpolation-filters="sRGB">
<feFlood flood-opacity="0" result="BackgroundImageFix"/>
<feColorMatrix in="SourceAlpha" type="matrix" values="0 0 0 0 0 0 0 0 0 0 0 0 0 0 0 0 0 0 127 0" result="hardAlpha"/>
<feMorphology radius="2" operator="dilate" in="SourceAlpha" result="effect1_dropShadow_40_3"/>
<feOffset/>
<feGaussianBlur stdDeviation="7.5"/>
<feComposite in2="hardAlpha" operator="out"/>
<feColorMatrix type="matrix" values="0 0 0 0 0.145833 0 0 0 0 0.448077 0 0 0 0 1 0 0 0 1 0"/>
<feBlend mode="normal" in2="BackgroundImageFix" result="effect1_dropShadow_40_3"/>
<feBlend mode="normal" in="SourceGraphic" in2="effect1_dropShadow_40_3" result="shape"/>
</filter>
</defs>
</svg>
